<mxfile host="65bd71144e">
    <diagram id="lUkEiZBkcTz3_rYmzsEV" name="Page-1">
        <mxGraphModel dx="1457" dy="801" grid="1" gridSize="10" guides="1" tooltips="1" connect="1" arrows="1" fold="1" page="1" pageScale="1" pageWidth="3300" pageHeight="4681" math="1" shadow="0">
            <root>
                <mxCell id="0"/>
                <mxCell id="1" parent="0"/>
                <mxCell id="2" value="&lt;font style=&quot;font-size: 24px;&quot;&gt;h_te&lt;/font&gt;" style="shape=parallelogram;perimeter=parallelogramPerimeter;whiteSpace=wrap;html=1;fixedSize=1;size=40;fillColor=#60a917;fontColor=#ffffff;strokeColor=#2D7600;" parent="1" vertex="1">
                    <mxGeometry x="410" y="260" width="280" height="120" as="geometry"/>
                </mxCell>
                <mxCell id="8" value="" style="shape=partialRectangle;whiteSpace=wrap;html=1;left=0;right=0;fillColor=none;strokeWidth=7;strokeColor=#6c8ebf;" parent="1" vertex="1">
                    <mxGeometry x="360" y="310" width="30" height="20" as="geometry"/>
                </mxCell>
                <mxCell id="9" value="" style="shape=cross;whiteSpace=wrap;html=1;strokeWidth=7;rotation=45;fillColor=#dae8fc;strokeColor=#6c8ebf;" parent="1" vertex="1">
                    <mxGeometry x="700" y="300" width="40" height="40" as="geometry"/>
                </mxCell>
                <mxCell id="13" value="&lt;font color=&quot;#080808&quot;&gt;&lt;span style=&quot;font-size: 14px;&quot;&gt;&lt;b&gt;Y_hat&lt;/b&gt;&lt;/span&gt;&lt;/font&gt;" style="rounded=1;whiteSpace=wrap;html=1;fillColor=#fff2cc;strokeColor=#d6b656;" parent="1" vertex="1">
                    <mxGeometry x="290" y="260" width="40" height="120" as="geometry"/>
                </mxCell>
                <mxCell id="14" value="&lt;b&gt;&lt;font color=&quot;#575757&quot; style=&quot;font-size: 16px;&quot;&gt;Y&lt;/font&gt;&lt;/b&gt;" style="rounded=1;whiteSpace=wrap;html=1;fillColor=#fff2cc;strokeColor=#d6b656;" parent="1" vertex="1">
                    <mxGeometry x="760" y="200" width="40" height="240" as="geometry"/>
                </mxCell>
            </root>
        </mxGraphModel>
    </diagram>
</mxfile>